<svg width="452" height="80" viewBox="0 10 452 80" fill="none" xmlns="http://www.w3.org/2000/svg">
<path d="M30.241 35.5684L64.4683 64.2885L50.4861 80.9519C42.5553 90.4035 28.464 91.6363 19.0124 83.7054V83.7054C9.56075 75.7746 8.32792 61.6833 16.2588 52.2317L30.241 35.5684Z" fill="#86EFAC" fill-opacity="0.4"/>
<path d="M23.167 59.6389C20.96 63.0313 18.3707 71.1169 25.6697 76.3205" stroke="#86EFAC" stroke-width="1.76371" stroke-linecap="round" stroke-dasharray="3.53 7.05 11.76 7.05"/>
<path d="M75.6961 16.1527C85.1474 24.0834 86.3805 38.1749 78.4504 47.6265L50.486 80.9531L50.1097 81.3909C42.1159 90.4417 28.3154 91.5137 19.0115 83.7068L18.5751 83.3305C9.52429 75.3366 8.45166 61.5369 16.2586 52.233L44.223 18.9063C52.1539 9.45543 66.2447 8.22243 75.6961 16.1527ZM32.1501 42.6285L20.8549 56.0897C15.0541 63.0027 15.9554 73.3096 22.8682 79.1105C29.7814 84.9113 40.0889 84.0096 45.8897 77.0964L57.1849 63.6353L32.1501 42.6285ZM71.8394 20.749C64.9264 14.9487 54.6201 15.8506 48.8193 22.763L37.1807 36.6333L62.2155 57.6401L73.8541 43.7697C79.6543 36.8566 78.7522 26.5497 71.8394 20.749Z" fill="#86EFAC"/>
<path d="M119.709 33.7158V25H160.773L155.209 33.7158H145.466V75H135.017V33.7158H119.709Z" fill="#86EFAC"/>
<path d="M163.551 75V25H197.243V33.7158H174.123V45.6299H195.509V54.3457H174.123V66.2842H197.34V75H163.551Z" fill="#86EFAC"/>
<path d="M202.896 75V25H222.622C226.398 25 229.621 25.6755 232.29 27.0264C234.976 28.361 237.018 30.2572 238.418 32.7148C239.834 35.1562 240.542 38.029 240.542 41.333C240.542 44.6533 239.826 47.5098 238.394 49.9023C236.962 52.2786 234.886 54.1016 232.168 55.3711C229.466 56.6406 226.195 57.2754 222.354 57.2754H209.146V48.7793H220.645C222.663 48.7793 224.339 48.5026 225.674 47.9492C227.009 47.3958 228.002 46.5658 228.653 45.459C229.32 44.3522 229.654 42.9769 229.654 41.333C229.654 39.6729 229.32 38.2731 228.653 37.1338C228.002 35.9945 227.001 35.1318 225.65 34.5459C224.315 33.9437 222.63 33.6426 220.596 33.6426H213.467V75H202.896ZM229.898 52.2461L242.324 75H230.655L218.496 52.2461H229.898Z" fill="#86EFAC"/>
<path d="M247.88 25H260.917L274.687 58.5938H275.272L289.042 25H302.079V75H291.825V42.4561H291.41L278.471 74.7559H271.488L258.549 42.334H258.134V75H247.88V25Z" fill="#86EFAC"/>
<path d="M318.206 25V75H307.635V25H318.206Z" fill="#86EFAC"/>
<path d="M365.583 25V75H356.452L334.699 43.5303H334.333V75H323.762V25H333.039L354.621 56.4453H355.061V25H365.583Z" fill="#86EFAC"/>
<path d="M379.689 75H368.361L385.622 25H399.245L416.481 75H405.153L392.628 36.4258H392.238L379.689 75Z" fill="#86EFAC"/>
<path d="M419.259 75V25H429.83V66.2842H451.266V75H419.259Z" fill="#86EFAC"/>
</svg>
