<svg xmlns="http://www.w3.org/2000/svg" width="53" height="64" fill="none"><path fill="#F7F8F9" d="M34.13 2.038a3.098 3.098 0 0 0-.177.323 10.125 10.125 0 0 1-1.78 2.36 13.463 13.463 0 0 1-2.058 1.599l-.219.126-.13.422a65.04 65.04 0 0 1-.315 1c-.213.663-.222.721-.096.682a29.47 29.47 0 0 1 1.514-.414 19.544 19.544 0 0 1 1.614-.213l.303-.03.105-.337a62.33 62.33 0 0 0 .742-2.751c.26-1.096.556-2.767.498-2.767Zm5.838 16.516c-.142-.405-.281-.796-.318-.862a3.733 3.733 0 0 0-.575-.532c-.285-.226-.822-.665-1.2-.975-.964-.808-1.378-1.037-1.915-1.077a1.14 1.14 0 0 0-.544.086c-.18.067-.352.154-.513.257-.219.151-.433.355-.433.432.06.161.13.32.207.474.263.6.48 1.219.653 1.85.126.444.327.599 1.297 1.002s1.119.455 1.45.518c.43.07.867.073 1.297.013.262-.072.51-.188.733-.343l.114-.092-.253-.751Zm0 0c-.142-.405-.281-.796-.318-.862a3.733 3.733 0 0 0-.575-.532c-.285-.226-.822-.665-1.2-.975-.964-.808-1.378-1.037-1.915-1.077a1.14 1.14 0 0 0-.544.086c-.18.067-.352.154-.513.257-.219.151-.433.355-.433.432.06.161.13.32.207.474.263.6.48 1.219.653 1.85.126.444.327.599 1.297 1.002s1.119.455 1.45.518c.43.07.867.073 1.297.013.262-.072.51-.188.733-.343l.114-.092-.253-.751Zm0 0c-.142-.405-.281-.796-.318-.862a3.733 3.733 0 0 0-.575-.532c-.285-.226-.822-.665-1.2-.975-.964-.808-1.378-1.037-1.915-1.077a1.14 1.14 0 0 0-.544.086c-.18.067-.352.154-.513.257-.219.151-.433.355-.433.432.06.161.13.32.207.474.263.6.48 1.219.653 1.85.126.444.327.599 1.297 1.002s1.119.455 1.45.518c.43.07.867.073 1.297.013.262-.072.51-.188.733-.343l.114-.092-.253-.751Zm0 0c-.142-.405-.281-.796-.318-.862a3.733 3.733 0 0 0-.575-.532c-.285-.226-.822-.665-1.2-.975-.964-.808-1.378-1.037-1.915-1.077a1.14 1.14 0 0 0-.544.086c-.18.067-.352.154-.513.257-.219.151-.433.355-.433.432.06.161.13.32.207.474.263.6.48 1.219.653 1.85.126.444.327.599 1.297 1.002s1.119.455 1.45.518c.43.07.867.073 1.297.013.262-.072.51-.188.733-.343l.114-.092-.253-.751Zm0 0c-.142-.405-.281-.796-.318-.862a3.733 3.733 0 0 0-.575-.532c-.285-.226-.822-.665-1.2-.975-.964-.808-1.378-1.037-1.915-1.077a1.14 1.14 0 0 0-.544.086c-.18.067-.352.154-.513.257-.219.151-.433.355-.433.432.06.161.13.32.207.474.263.6.48 1.219.653 1.85.126.444.327.599 1.297 1.002s1.119.455 1.45.518c.43.07.867.073 1.297.013.262-.072.51-.188.733-.343l.114-.092-.253-.751Zm0 0c-.142-.405-.281-.796-.318-.862a3.733 3.733 0 0 0-.575-.532c-.285-.226-.822-.665-1.2-.975-.964-.808-1.378-1.037-1.915-1.077a1.14 1.14 0 0 0-.544.086c-.18.067-.352.154-.513.257-.219.151-.433.355-.433.432.06.161.13.32.207.474.263.6.48 1.219.653 1.85.126.444.327.599 1.297 1.002s1.119.455 1.45.518c.43.07.867.073 1.297.013.262-.072.51-.188.733-.343l.114-.092-.253-.751Zm0 0c-.142-.405-.281-.796-.318-.862a3.733 3.733 0 0 0-.575-.532c-.285-.226-.822-.665-1.2-.975-.964-.808-1.378-1.037-1.915-1.077a1.14 1.14 0 0 0-.544.086c-.18.067-.352.154-.513.257-.219.151-.433.355-.433.432.06.161.13.32.207.474.263.6.48 1.219.653 1.85.126.444.327.599 1.297 1.002s1.119.455 1.45.518c.43.07.867.073 1.297.013.262-.072.51-.188.733-.343l.114-.092-.253-.751Zm0 0c-.142-.405-.281-.796-.318-.862a3.733 3.733 0 0 0-.575-.532c-.285-.226-.822-.665-1.2-.975-.964-.808-1.378-1.037-1.915-1.077a1.14 1.14 0 0 0-.544.086c-.18.067-.352.154-.513.257-.219.151-.433.355-.433.432.06.161.13.32.207.474.263.6.48 1.219.653 1.85.126.444.327.599 1.297 1.002s1.119.455 1.45.518c.43.07.867.073 1.297.013.262-.072.51-.188.733-.343l.114-.092-.253-.751Zm0 0c-.142-.405-.281-.796-.318-.862a3.733 3.733 0 0 0-.575-.532c-.285-.226-.822-.665-1.2-.975-.964-.808-1.378-1.037-1.915-1.077a1.14 1.14 0 0 0-.544.086c-.18.067-.352.154-.513.257-.219.151-.433.355-.433.432.06.161.13.32.207.474.263.6.48 1.219.653 1.85.126.444.327.599 1.297 1.002s1.119.455 1.45.518c.43.07.867.073 1.297.013.262-.072.51-.188.733-.343l.114-.092-.253-.751Zm0 0c-.142-.405-.281-.796-.318-.862a3.733 3.733 0 0 0-.575-.532c-.285-.226-.822-.665-1.2-.975-.964-.808-1.378-1.037-1.915-1.077a1.14 1.14 0 0 0-.544.086c-.18.067-.352.154-.513.257-.219.151-.433.355-.433.432.06.161.13.32.207.474.263.6.48 1.219.653 1.85.126.444.327.599 1.297 1.002s1.119.455 1.45.518c.43.07.867.073 1.297.013.262-.072.51-.188.733-.343l.114-.092-.253-.751Zm0 0c-.142-.405-.281-.796-.318-.862a3.733 3.733 0 0 0-.575-.532c-.285-.226-.822-.665-1.2-.975-.964-.808-1.378-1.037-1.915-1.077a1.14 1.14 0 0 0-.544.086c-.18.067-.352.154-.513.257-.219.151-.433.355-.433.432.06.161.13.32.207.474.263.6.48 1.219.653 1.85.126.444.327.599 1.297 1.002s1.119.455 1.45.518c.43.07.867.073 1.297.013.262-.072.51-.188.733-.343l.114-.092-.253-.751Zm0 0c-.142-.405-.281-.796-.318-.862a3.733 3.733 0 0 0-.575-.532c-.285-.226-.822-.665-1.2-.975-.964-.808-1.378-1.037-1.915-1.077a1.14 1.14 0 0 0-.544.086c-.18.067-.352.154-.513.257-.219.151-.433.355-.433.432.06.161.13.32.207.474.263.6.48 1.219.653 1.85.126.444.327.599 1.297 1.002s1.119.455 1.45.518c.43.07.867.073 1.297.013.262-.072.51-.188.733-.343l.114-.092-.253-.751Zm0 0c-.142-.405-.281-.796-.318-.862a3.733 3.733 0 0 0-.575-.532c-.285-.226-.822-.665-1.2-.975-.964-.808-1.378-1.037-1.915-1.077a1.14 1.14 0 0 0-.544.086c-.18.067-.352.154-.513.257-.219.151-.433.355-.433.432.06.161.13.32.207.474.263.6.48 1.219.653 1.85.126.444.327.599 1.297 1.002s1.119.455 1.45.518c.43.07.867.073 1.297.013.262-.072.51-.188.733-.343l.114-.092-.253-.751Zm0 0c-.142-.405-.281-.796-.318-.862a3.733 3.733 0 0 0-.575-.532c-.285-.226-.822-.665-1.2-.975-.964-.808-1.378-1.037-1.915-1.077a1.14 1.14 0 0 0-.544.086c-.18.067-.352.154-.513.257-.219.151-.433.355-.433.432.06.161.13.32.207.474.263.6.48 1.219.653 1.85.126.444.327.599 1.297 1.002s1.119.455 1.45.518c.43.07.867.073 1.297.013.262-.072.51-.188.733-.343l.114-.092-.253-.751Zm0 0c-.142-.405-.281-.796-.318-.862a3.733 3.733 0 0 0-.575-.532c-.285-.226-.822-.665-1.2-.975-.964-.808-1.378-1.037-1.915-1.077a1.14 1.14 0 0 0-.544.086c-.18.067-.352.154-.513.257-.219.151-.433.355-.433.432.06.161.13.32.207.474.263.6.48 1.219.653 1.85.126.444.327.599 1.297 1.002s1.119.455 1.45.518c.43.07.867.073 1.297.013.262-.072.51-.188.733-.343l.114-.092-.253-.751Zm0 0c-.142-.405-.281-.796-.318-.862a3.733 3.733 0 0 0-.575-.532c-.285-.226-.822-.665-1.2-.975-.964-.808-1.378-1.037-1.915-1.077a1.14 1.14 0 0 0-.544.086c-.18.067-.352.154-.513.257-.219.151-.433.355-.433.432.06.161.13.32.207.474.263.6.48 1.219.653 1.85.126.444.327.599 1.297 1.002s1.119.455 1.45.518c.43.07.867.073 1.297.013.262-.072.51-.188.733-.343l.114-.092-.253-.751Zm0 0c-.142-.405-.281-.796-.318-.862a3.733 3.733 0 0 0-.575-.532c-.285-.226-.822-.665-1.2-.975-.964-.808-1.378-1.037-1.915-1.077a1.14 1.14 0 0 0-.544.086c-.18.067-.352.154-.513.257-.219.151-.433.355-.433.432.06.161.13.32.207.474.263.6.48 1.219.653 1.85.126.444.327.599 1.297 1.002s1.119.455 1.45.518c.43.07.867.073 1.297.013.262-.072.51-.188.733-.343l.114-.092-.253-.751Zm0 0c-.142-.405-.281-.796-.318-.862a3.733 3.733 0 0 0-.575-.532c-.285-.226-.822-.665-1.2-.975-.964-.808-1.378-1.037-1.915-1.077a1.14 1.14 0 0 0-.544.086c-.18.067-.352.154-.513.257-.219.151-.433.355-.433.432.06.161.13.32.207.474.263.6.48 1.219.653 1.85.126.444.327.599 1.297 1.002s1.119.455 1.45.518c.43.07.867.073 1.297.013.262-.072.51-.188.733-.343l.114-.092-.253-.751Zm0 0c-.142-.405-.281-.796-.318-.862a3.733 3.733 0 0 0-.575-.532c-.285-.226-.822-.665-1.2-.975-.964-.808-1.378-1.037-1.915-1.077a1.14 1.14 0 0 0-.544.086c-.18.067-.352.154-.513.257-.219.151-.433.355-.433.432.06.161.13.32.207.474.263.6.48 1.219.653 1.85.126.444.327.599 1.297 1.002s1.119.455 1.45.518c.43.07.867.073 1.297.013.262-.072.51-.188.733-.343l.114-.092-.253-.751Zm0 0c-.142-.405-.281-.796-.318-.862a3.733 3.733 0 0 0-.575-.532c-.285-.226-.822-.665-1.2-.975-.964-.808-1.378-1.037-1.915-1.077a1.14 1.14 0 0 0-.544.086c-.18.067-.352.154-.513.257-.219.151-.433.355-.433.432.06.161.13.32.207.474.263.6.48 1.219.653 1.85.126.444.327.599 1.297 1.002s1.119.455 1.45.518c.43.07.867.073 1.297.013.262-.072.51-.188.733-.343l.114-.092-.253-.751Zm0 0c-.142-.405-.281-.796-.318-.862a3.733 3.733 0 0 0-.575-.532c-.285-.226-.822-.665-1.2-.975-.964-.808-1.378-1.037-1.915-1.077a1.14 1.14 0 0 0-.544.086c-.18.067-.352.154-.513.257-.219.151-.433.355-.433.432.06.161.13.32.207.474.263.6.48 1.219.653 1.85.126.444.327.599 1.297 1.002s1.119.455 1.45.518c.43.07.867.073 1.297.013.262-.072.51-.188.733-.343l.114-.092-.253-.751Zm0 0c-.142-.405-.281-.796-.318-.862a3.733 3.733 0 0 0-.575-.532c-.285-.226-.822-.665-1.2-.975-.964-.808-1.378-1.037-1.915-1.077a1.14 1.14 0 0 0-.544.086c-.18.067-.352.154-.513.257-.219.151-.433.355-.433.432.06.161.13.32.207.474.263.6.48 1.219.653 1.85.126.444.327.599 1.297 1.002s1.119.455 1.45.518c.43.07.867.073 1.297.013.262-.072.51-.188.733-.343l.114-.092-.253-.751Zm0 0c-.142-.405-.281-.796-.318-.862a3.733 3.733 0 0 0-.575-.532c-.285-.226-.822-.665-1.2-.975-.964-.808-1.378-1.037-1.915-1.077a1.14 1.14 0 0 0-.544.086c-.18.067-.352.154-.513.257-.219.151-.433.355-.433.432.06.161.13.32.207.474.263.6.48 1.219.653 1.85.126.444.327.599 1.297 1.002s1.119.455 1.45.518c.43.07.867.073 1.297.013.262-.072.51-.188.733-.343l.114-.092-.253-.751Zm0 0c-.142-.405-.281-.796-.318-.862a3.733 3.733 0 0 0-.575-.532c-.285-.226-.822-.665-1.2-.975-.964-.808-1.378-1.037-1.915-1.077a1.14 1.14 0 0 0-.544.086c-.18.067-.352.154-.513.257-.219.151-.433.355-.433.432.06.161.13.32.207.474.263.6.48 1.219.653 1.85.126.444.327.599 1.297 1.002s1.119.455 1.45.518c.43.07.867.073 1.297.013.262-.072.51-.188.733-.343l.114-.092-.253-.751Zm0 0c-.142-.405-.281-.796-.318-.862a3.733 3.733 0 0 0-.575-.532c-.285-.226-.822-.665-1.2-.975-.964-.808-1.378-1.037-1.915-1.077a1.14 1.14 0 0 0-.544.086c-.18.067-.352.154-.513.257-.219.151-.433.355-.433.432.06.161.13.32.207.474.263.6.48 1.219.653 1.85.126.444.327.599 1.297 1.002s1.119.455 1.45.518c.43.07.867.073 1.297.013.262-.072.51-.188.733-.343l.114-.092-.253-.751Zm0 0c-.142-.405-.281-.796-.318-.862a3.733 3.733 0 0 0-.575-.532c-.285-.226-.822-.665-1.2-.975-.964-.808-1.378-1.037-1.915-1.077a1.14 1.14 0 0 0-.544.086c-.18.067-.352.154-.513.257-.219.151-.433.355-.433.432.06.161.13.32.207.474.263.6.48 1.219.653 1.85.126.444.327.599 1.297 1.002s1.119.455 1.45.518c.43.07.867.073 1.297.013.262-.072.51-.188.733-.343l.114-.092-.253-.751Zm0 0c-.142-.405-.281-.796-.318-.862a3.733 3.733 0 0 0-.575-.532c-.285-.226-.822-.665-1.2-.975-.964-.808-1.378-1.037-1.915-1.077a1.14 1.14 0 0 0-.544.086c-.18.067-.352.154-.513.257-.219.151-.433.355-.433.432.06.161.13.32.207.474.263.6.48 1.219.653 1.85.126.444.327.599 1.297 1.002s1.119.455 1.45.518c.43.07.867.073 1.297.013.262-.072.51-.188.733-.343l.114-.092-.253-.751Zm0 0c-.142-.405-.281-.796-.318-.862a3.733 3.733 0 0 0-.575-.532c-.285-.226-.822-.665-1.2-.975-.964-.808-1.378-1.037-1.915-1.077a1.14 1.14 0 0 0-.544.086c-.18.067-.352.154-.513.257-.219.151-.433.355-.433.432.06.161.13.32.207.474.263.6.48 1.219.653 1.85.126.444.327.599 1.297 1.002s1.119.455 1.45.518c.43.07.867.073 1.297.013.262-.072.51-.188.733-.343l.114-.092-.253-.751Zm0 0c-.142-.405-.281-.796-.318-.862a3.733 3.733 0 0 0-.575-.532c-.285-.226-.822-.665-1.2-.975-.964-.808-1.378-1.037-1.915-1.077a1.14 1.14 0 0 0-.544.086c-.18.067-.352.154-.513.257-.219.151-.433.355-.433.432.06.161.13.32.207.474.263.6.48 1.219.653 1.85.126.444.327.599 1.297 1.002s1.119.455 1.45.518c.43.07.867.073 1.297.013.262-.072.51-.188.733-.343l.114-.092-.253-.751Zm0 0c-.142-.405-.281-.796-.318-.862a3.733 3.733 0 0 0-.575-.532c-.285-.226-.822-.665-1.2-.975-.964-.808-1.378-1.037-1.915-1.077a1.14 1.14 0 0 0-.544.086c-.18.067-.352.154-.513.257-.219.151-.433.355-.433.432.06.161.13.32.207.474.263.6.48 1.219.653 1.85.126.444.327.599 1.297 1.002s1.119.455 1.45.518c.43.07.867.073 1.297.013.262-.072.51-.188.733-.343l.114-.092-.253-.751Zm0 0c-.142-.405-.281-.796-.318-.862a3.733 3.733 0 0 0-.575-.532c-.285-.226-.822-.665-1.2-.975-.964-.808-1.378-1.037-1.915-1.077a1.14 1.14 0 0 0-.544.086c-.18.067-.352.154-.513.257-.219.151-.433.355-.433.432.06.161.13.32.207.474.263.6.48 1.219.653 1.85.126.444.327.599 1.297 1.002s1.119.455 1.45.518c.43.07.867.073 1.297.013.262-.072.51-.188.733-.343l.114-.092-.253-.751Zm0 0c-.142-.405-.281-.796-.318-.862a3.733 3.733 0 0 0-.575-.532c-.285-.226-.822-.665-1.2-.975-.964-.808-1.378-1.037-1.915-1.077a1.14 1.14 0 0 0-.544.086c-.18.067-.352.154-.513.257-.219.151-.433.355-.433.432.06.161.13.32.207.474.263.6.48 1.219.653 1.85.126.444.327.599 1.297 1.002s1.119.455 1.45.518c.43.07.867.073 1.297.013.262-.072.51-.188.733-.343l.114-.092-.253-.751Zm0 0c-.142-.405-.281-.796-.318-.862a3.733 3.733 0 0 0-.575-.532c-.285-.226-.822-.665-1.2-.975-.964-.808-1.378-1.037-1.915-1.077a1.14 1.14 0 0 0-.544.086c-.18.067-.352.154-.513.257-.219.151-.433.355-.433.432.06.161.13.32.207.474.263.6.48 1.219.653 1.85.126.444.327.599 1.297 1.002s1.119.455 1.45.518c.43.07.867.073 1.297.013.262-.072.51-.188.733-.343l.114-.092-.253-.751Zm0 0c-.142-.405-.281-.796-.318-.862a3.733 3.733 0 0 0-.575-.532c-.285-.226-.822-.665-1.2-.975-.964-.808-1.378-1.037-1.915-1.077a1.14 1.14 0 0 0-.544.086c-.18.067-.352.154-.513.257-.219.151-.433.355-.433.432.06.161.13.32.207.474.263.6.48 1.219.653 1.85.126.444.327.599 1.297 1.002s1.119.455 1.45.518c.43.07.867.073 1.297.013.262-.072.51-.188.733-.343l.114-.092-.253-.751Zm12.35 10.76a13.268 13.268 0 0 0-1.11-1.58 130.914 130.914 0 0 0-2.122-2.558c-.323-.38-.711-.831-.848-1.002-.137-.17-.319-.378-.39-.458-.07-.08-.265-.305-.432-.5l-.767-.901c-1.393-1.638-2.822-3.358-3.272-3.93-.534-.679-.548-.725-1.174-2.746a18.598 18.598 0 0 0-.297-.928.615.615 0 0 0-.121-.178c-.235-.275-.8-.744-1.725-1.431a37.33 37.33 0 0 1-1.067-.823 38.22 38.22 0 0 0-1.578-1.214 35.757 35.757 0 0 0-1.12-.783 17.403 17.403 0 0 0-2.668-1.53 4.014 4.014 0 0 0-.231-.092 2.441 2.441 0 0 0-.984-.211h-.071l-.087.012h-.068c-.128.016-.258.034-.388.055-.13.022-.23.034-.345.055-.116.022-.214.036-.32.057a4.01 4.01 0 0 0-.203.04h-.04a13.98 13.98 0 0 0-.392.081l-.209.046-.15.036-.16.039c-.179.042-.339.085-.503.13l-.377.11-.195.06a1.886 1.886 0 0 1-.417.106 7.93 7.93 0 0 1 .228-.827c.838-2.776 1.12-4.191 1.181-6.038.03-1.06-.094-2.364-.231-2.41-.03 0-.121.096-.208.233a67.49 67.49 0 0 0-.521.833 27.885 27.885 0 0 1-1.874 2.525c-.998 1.152-2.626 2.562-3.75 3.244-.785.475-1.342.693-2.847 1.076v.015c-.344.096-.7.197-1.068.303l.013 1.675.035 3.593-1.893-3.055-.813-1.31a25.39 25.39 0 0 0-2.996 1.408l.336 1.978.603 3.541-2.359-2.713-1.067-1.227a22.952 22.952 0 0 0-2.63 2.223l.769 1.717 1.466 3.282L7.9 17.3l-1.186-.819c-.728.924-1.388 1.9-1.973 2.921l.968 1.244 2.203 2.841-3.361-1.286-1.032-.394a28.088 28.088 0 0 0-1.327 3.662l1.233.888 2.912 2.113-3.588-.295-1.194-.097a34.326 34.326 0 0 0-.491 3.305l1.613.825 3.203 1.64-3.585.275-1.406.101a39.79 39.79 0 0 0 .05 3.227l1.934.67 3.4 1.178-3.519.757-1.55.332c.155 1.243.367 2.486.628 3.68l1.319.074 3.592.203-3.176 1.692-1.094.585a37.124 37.124 0 0 0 1.706 4.773s17.372-1.67 35.79 12.406a25.068 25.068 0 0 0 1.199-11.468 24.734 24.734 0 0 0-2.206-7.5c-1.922-4.72-3.31-5.95-3.585-6.157l-.05-.035c0 .067 0 1.804-1.957.316a25.03 25.03 0 0 1-7.92-10.599 14.842 14.842 0 0 1-1.019-4.757v-.014l-.01-.043a17.52 17.52 0 0 0 1.86 3.097 12.008 12.008 0 0 0 1.853 1.852c1.3.96 2.823 1.599 4.672 1.982.292.057.735.151.996.206.518.112 1.392.263 2.313.396.328.046.824.142 1.103.211 1.808.445 4.448 1.586 5.051 2.197.178.178.301.45.712 1.537.356.928.495 1.267.616 1.394a.226.226 0 0 0 .023.022c.178.166 2.796.509 4.19.56a4.112 4.112 0 0 0 2.133-.414c.31-.13.59-.326.819-.573.183-.177.343-.377.474-.596.193-.491.357-.994.491-1.505.278-.98.449-1.517.712-2.254l.127-.355c.232-.648.195-1.186-.25-1.982v-.005ZM19.768 16.06c-5.118 6.353-5.724 13.719 3.736 21.89a35.06 35.06 0 0 1-8.279-2.254c.3.366 6.215 7.41 15.687 10.478h.01c.097.034.193.064.285.09 1.27.375 2.105.137 2.155-.996.107.151 3.772 5.419 3.155 10.64a45.666 45.666 0 0 0-9.608-7.962 9.702 9.702 0 0 1 1.564 3.833c-.95-.73-8.473-6.345-17.313-8.317-3.81-19.586 8.607-27.402 8.607-27.402Zm31.398 14.717c-.215.673-.832 2.358-.89 2.42a.18.18 0 0 1-.163.056.215.215 0 0 1-.1-.052.214.214 0 0 1-.06-.094c-.025-.066-.142-.51-.264-.995l-.218-.877.108-.316c.027-.078.05-.146.068-.204 0-.02.013-.038.018-.055a.534.534 0 0 0 .016-.414.11.11 0 0 0 0-.021c-.072-.167-.15-.26-1.491-1.75-.498-.553-1.423-1.598-2.077-2.322-.653-.725-1.396-1.567-1.675-1.865-.28-.298-.776-.845-1.097-1.2-.828-.917-2.05-2.132-2.338-2.32a1.182 1.182 0 0 0-.476-.234.756.756 0 0 0-.334.067c-.476.18-.982.262-1.49.238a5.337 5.337 0 0 1-1.948-.323c-.973-.325-2.213-.916-2.584-1.229-.238-.206-.412-.607-.711-1.623-.119-.434-.261-.86-.427-1.279a6.062 6.062 0 0 1-.192-.502c-.075-.41.841-1.139 1.715-1.362l.285-.073v-.293c0-.744-.242-1.305-.81-1.891-.197-.203-.308-.315-.283-.333.025-.017.274.098.82.37a38.064 38.064 0 0 1 4.626 2.807c.352.243.686.512.998.803.236.223.426.49.562.783l.012.023c.094.196.195.44.323.768l.046.12c.148.41.318.81.51 1.2.184.306.79 1.058 1.82 2.256l.898 1.05.023.028.687.803c.43.502 1.357 1.57 2.062 2.364 2.19 2.475 3.414 3.889 3.76 4.338.15.178.256.39.307.616.031.173.018.35-.036.517Zm-11.508-13.08a3.723 3.723 0 0 0-.574-.532c-.285-.226-.822-.664-1.2-.975-.963-.808-1.378-1.037-1.915-1.076a1.14 1.14 0 0 0-.545.085c-.182.066-.357.15-.521.252-.219.151-.433.355-.433.432.06.161.13.32.207.474.263.6.48 1.219.653 1.85.126.444.327.599 1.297 1.002s1.119.455 1.45.518c.43.07.867.073 1.297.013.262-.072.51-.188.733-.343l.114-.092-.253-.746c-.142-.405-.281-.8-.31-.861Zm.319.862c-.142-.405-.281-.796-.319-.861a3.723 3.723 0 0 0-.574-.533c-.285-.226-.822-.664-1.2-.975-.963-.808-1.378-1.037-1.915-1.076a1.14 1.14 0 0 0-.545.085c-.182.066-.357.15-.521.252-.219.151-.433.355-.433.432.06.161.13.32.207.474.263.6.48 1.219.653 1.85.126.444.327.599 1.297 1.002s1.119.455 1.45.518c.43.07.867.073 1.297.013.262-.072.51-.188.733-.343l.114-.092-.244-.746Zm0 0c-.142-.405-.281-.796-.319-.861a3.723 3.723 0 0 0-.574-.533c-.285-.226-.822-.664-1.2-.975-.963-.808-1.378-1.037-1.915-1.076a1.14 1.14 0 0 0-.545.085c-.182.066-.357.15-.521.252-.219.151-.433.355-.433.432.06.161.13.32.207.474.263.6.48 1.219.653 1.85.126.444.327.599 1.297 1.002s1.119.455 1.45.518c.43.07.867.073 1.297.013.262-.072.51-.188.733-.343l.114-.092-.244-.746Zm0 0c-.142-.405-.281-.796-.319-.861a3.723 3.723 0 0 0-.574-.533c-.285-.226-.822-.664-1.2-.975-.963-.808-1.378-1.037-1.915-1.076a1.14 1.14 0 0 0-.545.085c-.182.066-.357.15-.521.252-.219.151-.433.355-.433.432.06.161.13.32.207.474.263.6.48 1.219.653 1.85.126.444.327.599 1.297 1.002s1.119.455 1.45.518c.43.07.867.073 1.297.013.262-.072.51-.188.733-.343l.114-.092-.244-.746Zm0 0c-.142-.405-.281-.796-.319-.861a3.723 3.723 0 0 0-.574-.533c-.285-.226-.822-.664-1.2-.975-.963-.808-1.378-1.037-1.915-1.076a1.14 1.14 0 0 0-.545.085c-.182.066-.357.15-.521.252-.219.151-.433.355-.433.432.06.161.13.32.207.474.263.6.48 1.219.653 1.85.126.444.327.599 1.297 1.002s1.119.455 1.45.518c.43.07.867.073 1.297.013.262-.072.51-.188.733-.343l.114-.092-.244-.746Zm-.009 0c-.142-.405-.281-.796-.318-.861a3.733 3.733 0 0 0-.575-.533c-.285-.226-.822-.664-1.2-.975-.964-.808-1.378-1.037-1.915-1.076a1.138 1.138 0 0 0-.544.085c-.18.066-.351.15-.513.252-.219.151-.433.355-.433.432.06.161.13.32.207.474.263.6.48 1.219.653 1.85.126.444.327.599 1.297 1.002s1.119.455 1.45.518c.43.07.867.073 1.297.013.262-.072.51-.188.733-.343l.114-.092-.253-.746Zm0 0c-.142-.405-.281-.796-.318-.861a3.733 3.733 0 0 0-.575-.533c-.285-.226-.822-.664-1.2-.975-.964-.808-1.378-1.037-1.915-1.076a1.138 1.138 0 0 0-.544.085c-.18.066-.351.15-.513.252-.219.151-.433.355-.433.432.06.161.13.32.207.474.263.6.48 1.219.653 1.85.126.444.327.599 1.297 1.002s1.119.455 1.45.518c.43.07.867.073 1.297.013.262-.072.51-.188.733-.343l.114-.092-.253-.746Zm0 0c-.142-.405-.281-.796-.318-.861a3.733 3.733 0 0 0-.575-.533c-.285-.226-.822-.664-1.2-.975-.964-.808-1.378-1.037-1.915-1.076a1.138 1.138 0 0 0-.544.085c-.18.066-.351.15-.513.252-.219.151-.433.355-.433.432.06.161.13.32.207.474.263.6.48 1.219.653 1.85.126.444.327.599 1.297 1.002s1.119.455 1.45.518c.43.07.867.073 1.297.013.262-.072.51-.188.733-.343l.114-.092-.253-.746Zm0 0c-.142-.405-.281-.796-.318-.861a3.733 3.733 0 0 0-.575-.533c-.285-.226-.822-.664-1.2-.975-.964-.808-1.378-1.037-1.915-1.076a1.138 1.138 0 0 0-.544.085c-.18.066-.351.15-.513.252-.219.151-.433.355-.433.432.06.161.13.32.207.474.263.6.48 1.219.653 1.85.126.444.327.599 1.297 1.002s1.119.455 1.45.518c.43.07.867.073 1.297.013.262-.072.51-.188.733-.343l.114-.092-.253-.746Zm0 0c-.142-.405-.281-.796-.318-.861a3.733 3.733 0 0 0-.575-.533c-.285-.226-.822-.664-1.2-.975-.964-.808-1.378-1.037-1.915-1.076a1.138 1.138 0 0 0-.544.085c-.18.066-.351.15-.513.252-.219.151-.433.355-.433.432.06.161.13.32.207.474.263.6.48 1.219.653 1.85.126.444.327.599 1.297 1.002s1.119.455 1.45.518c.43.07.867.073 1.297.013.262-.072.51-.188.733-.343l.114-.092-.253-.746Zm0 0c-.142-.405-.281-.796-.318-.861a3.733 3.733 0 0 0-.575-.533c-.285-.226-.822-.664-1.2-.975-.964-.808-1.378-1.037-1.915-1.076a1.138 1.138 0 0 0-.544.085c-.18.066-.351.15-.513.252-.219.151-.433.355-.433.432.06.161.13.32.207.474.263.6.48 1.219.653 1.85.126.444.327.599 1.297 1.002s1.119.455 1.45.518c.43.07.867.073 1.297.013.262-.072.51-.188.733-.343l.114-.092-.253-.746Zm0 0c-.142-.405-.281-.796-.318-.861a3.733 3.733 0 0 0-.575-.533c-.285-.226-.822-.664-1.2-.975-.964-.808-1.378-1.037-1.915-1.076a1.138 1.138 0 0 0-.544.085c-.18.066-.351.15-.513.252-.219.151-.433.355-.433.432.06.161.13.32.207.474.263.6.48 1.219.653 1.85.126.444.327.599 1.297 1.002s1.119.455 1.45.518c.43.07.867.073 1.297.013.262-.072.51-.188.733-.343l.114-.092-.253-.746Zm0 0c-.142-.405-.281-.796-.318-.861a3.733 3.733 0 0 0-.575-.533c-.285-.226-.822-.664-1.2-.975-.964-.808-1.378-1.037-1.915-1.076a1.138 1.138 0 0 0-.544.085c-.18.066-.351.15-.513.252-.219.151-.433.355-.433.432.06.161.13.32.207.474.263.6.48 1.219.653 1.85.126.444.327.599 1.297 1.002s1.119.455 1.45.518c.43.07.867.073 1.297.013.262-.072.51-.188.733-.343l.114-.092-.253-.746Zm0 0c-.142-.405-.281-.796-.318-.861a3.733 3.733 0 0 0-.575-.533c-.285-.226-.822-.664-1.2-.975-.964-.808-1.378-1.037-1.915-1.076a1.138 1.138 0 0 0-.544.085c-.18.066-.351.15-.513.252-.219.151-.433.355-.433.432.06.161.13.32.207.474.263.6.48 1.219.653 1.85.126.444.327.599 1.297 1.002s1.119.455 1.45.518c.43.07.867.073 1.297.013.262-.072.51-.188.733-.343l.114-.092-.253-.746Zm0 0c-.142-.405-.281-.796-.318-.861a3.733 3.733 0 0 0-.575-.533c-.285-.226-.822-.664-1.2-.975-.964-.808-1.378-1.037-1.915-1.076a1.138 1.138 0 0 0-.544.085c-.18.066-.351.15-.513.252-.219.151-.433.355-.433.432.06.161.13.32.207.474.263.6.48 1.219.653 1.85.126.444.327.599 1.297 1.002s1.119.455 1.45.518c.43.07.867.073 1.297.013.262-.072.51-.188.733-.343l.114-.092-.253-.746Zm0 0c-.142-.405-.281-.796-.318-.861a3.733 3.733 0 0 0-.575-.533c-.285-.226-.822-.664-1.2-.975-.964-.808-1.378-1.037-1.915-1.076a1.138 1.138 0 0 0-.544.085c-.18.066-.351.15-.513.252-.219.151-.433.355-.433.432.06.161.13.32.207.474.263.6.48 1.219.653 1.85.126.444.327.599 1.297 1.002s1.119.455 1.45.518c.43.07.867.073 1.297.013.262-.072.51-.188.733-.343l.114-.092-.253-.746Zm0 0c-.142-.405-.281-.796-.318-.861a3.733 3.733 0 0 0-.575-.533c-.285-.226-.822-.664-1.2-.975-.964-.808-1.378-1.037-1.915-1.076a1.138 1.138 0 0 0-.544.085c-.18.066-.351.15-.513.252-.219.151-.433.355-.433.432.06.161.13.32.207.474.263.6.48 1.219.653 1.85.126.444.327.599 1.297 1.002s1.119.455 1.45.518c.43.07.867.073 1.297.013.262-.072.51-.188.733-.343l.114-.092-.253-.746Zm0 0c-.142-.405-.281-.796-.318-.861a3.733 3.733 0 0 0-.575-.533c-.285-.226-.822-.664-1.2-.975-.964-.808-1.378-1.037-1.915-1.076a1.138 1.138 0 0 0-.544.085c-.18.066-.351.15-.513.252-.219.151-.433.355-.433.432.06.161.13.32.207.474.263.6.48 1.219.653 1.85.126.444.327.599 1.297 1.002s1.119.455 1.45.518c.43.07.867.073 1.297.013.262-.072.51-.188.733-.343l.114-.092-.253-.746Zm9.503 12.676.108-.316c.027-.078.05-.146.068-.204l-.176.52ZM39.968 18.56c-.142-.405-.281-.796-.318-.861a3.733 3.733 0 0 0-.575-.533c-.285-.226-.822-.664-1.2-.975-.964-.808-1.378-1.037-1.915-1.076a1.138 1.138 0 0 0-.544.085c-.18.066-.351.15-.513.252-.219.151-.433.355-.433.432.06.161.13.32.207.474.263.6.48 1.219.653 1.85.126.444.327.599 1.297 1.002s1.119.455 1.45.518c.43.07.867.073 1.297.013.262-.072.51-.188.733-.343l.114-.092-.253-.746Zm0 0c-.142-.405-.281-.796-.318-.861a3.733 3.733 0 0 0-.575-.533c-.285-.226-.822-.664-1.2-.975-.964-.808-1.378-1.037-1.915-1.076a1.138 1.138 0 0 0-.544.085c-.18.066-.351.15-.513.252-.219.151-.433.355-.433.432.06.161.13.32.207.474.263.6.48 1.219.653 1.85.126.444.327.599 1.297 1.002s1.119.455 1.45.518c.43.07.867.073 1.297.013.262-.072.51-.188.733-.343l.114-.092-.253-.746Zm0 0c-.142-.405-.281-.796-.318-.861a3.733 3.733 0 0 0-.575-.533c-.285-.226-.822-.664-1.2-.975-.964-.808-1.378-1.037-1.915-1.076a1.138 1.138 0 0 0-.544.085c-.18.066-.351.15-.513.252-.219.151-.433.355-.433.432.06.161.13.32.207.474.263.6.48 1.219.653 1.85.126.444.327.599 1.297 1.002s1.119.455 1.45.518c.43.07.867.073 1.297.013.262-.072.51-.188.733-.343l.114-.092-.253-.746Zm0 0c-.142-.405-.281-.796-.318-.861a3.733 3.733 0 0 0-.575-.533c-.285-.226-.822-.664-1.2-.975-.964-.808-1.378-1.037-1.915-1.076a1.138 1.138 0 0 0-.544.085c-.18.066-.351.15-.513.252-.219.151-.433.355-.433.432.06.161.13.32.207.474.263.6.48 1.219.653 1.85.126.444.327.599 1.297 1.002s1.119.455 1.45.518c.43.07.867.073 1.297.013.262-.072.51-.188.733-.343l.114-.092-.253-.746Zm0 0c-.142-.405-.281-.796-.318-.861a3.733 3.733 0 0 0-.575-.533c-.285-.226-.822-.664-1.2-.975-.964-.808-1.378-1.037-1.915-1.076a1.138 1.138 0 0 0-.544.085c-.18.066-.351.15-.513.252-.219.151-.433.355-.433.432.06.161.13.32.207.474.263.6.48 1.219.653 1.85.126.444.327.599 1.297 1.002s1.119.455 1.45.518c.43.07.867.073 1.297.013.262-.072.51-.188.733-.343l.114-.092-.253-.746Zm0 0c-.142-.405-.281-.796-.318-.861a3.733 3.733 0 0 0-.575-.533c-.285-.226-.822-.664-1.2-.975-.964-.808-1.378-1.037-1.915-1.076a1.138 1.138 0 0 0-.544.085c-.18.066-.351.15-.513.252-.219.151-.433.355-.433.432.06.161.13.32.207.474.263.6.48 1.219.653 1.85.126.444.327.599 1.297 1.002s1.119.455 1.45.518c.43.07.867.073 1.297.013.262-.072.51-.188.733-.343l.114-.092-.253-.746Zm0 0c-.142-.405-.281-.796-.318-.861a3.733 3.733 0 0 0-.575-.533c-.285-.226-.822-.664-1.2-.975-.964-.808-1.378-1.037-1.915-1.076a1.138 1.138 0 0 0-.544.085c-.18.066-.351.15-.513.252-.219.151-.433.355-.433.432.06.161.13.32.207.474.263.6.48 1.219.653 1.85.126.444.327.599 1.297 1.002s1.119.455 1.45.518c.43.07.867.073 1.297.013.262-.072.51-.188.733-.343l.114-.092-.253-.746Zm0 0c-.142-.405-.281-.796-.318-.861a3.733 3.733 0 0 0-.575-.533c-.285-.226-.822-.664-1.2-.975-.964-.808-1.378-1.037-1.915-1.076a1.138 1.138 0 0 0-.544.085c-.18.066-.351.15-.513.252-.219.151-.433.355-.433.432.06.161.13.32.207.474.263.6.48 1.219.653 1.85.126.444.327.599 1.297 1.002s1.119.455 1.45.518c.43.07.867.073 1.297.013.262-.072.51-.188.733-.343l.114-.092-.253-.746Zm0 0c-.142-.405-.281-.796-.318-.861a3.733 3.733 0 0 0-.575-.533c-.285-.226-.822-.664-1.2-.975-.964-.808-1.378-1.037-1.915-1.076a1.138 1.138 0 0 0-.544.085c-.18.066-.351.15-.513.252-.219.151-.433.355-.433.432.06.161.13.32.207.474.263.6.48 1.219.653 1.85.126.444.327.599 1.297 1.002s1.119.455 1.45.518c.43.07.867.073 1.297.013.262-.072.51-.188.733-.343l.114-.092-.253-.746Zm0 0c-.142-.405-.281-.796-.318-.861a3.733 3.733 0 0 0-.575-.533c-.285-.226-.822-.664-1.2-.975-.964-.808-1.378-1.037-1.915-1.076a1.138 1.138 0 0 0-.544.085c-.18.066-.351.15-.513.252-.219.151-.433.355-.433.432.06.161.13.32.207.474.263.6.48 1.219.653 1.85.126.444.327.599 1.297 1.002s1.119.455 1.45.518c.43.07.867.073 1.297.013.262-.072.51-.188.733-.343l.114-.092-.253-.746Zm0 0c-.142-.405-.281-.796-.318-.861a3.733 3.733 0 0 0-.575-.533c-.285-.226-.822-.664-1.2-.975-.964-.808-1.378-1.037-1.915-1.076a1.138 1.138 0 0 0-.544.085c-.18.066-.351.15-.513.252-.219.151-.433.355-.433.432.06.161.13.32.207.474.263.6.48 1.219.653 1.85.126.444.327.599 1.297 1.002s1.119.455 1.45.518c.43.07.867.073 1.297.013.262-.072.51-.188.733-.343l.114-.092-.253-.746Zm0 0c-.142-.405-.281-.796-.318-.861a3.733 3.733 0 0 0-.575-.533c-.285-.226-.822-.664-1.2-.975-.964-.808-1.378-1.037-1.915-1.076a1.138 1.138 0 0 0-.544.085c-.18.066-.351.15-.513.252-.219.151-.433.355-.433.432.06.161.13.32.207.474.263.6.48 1.219.653 1.85.126.444.327.599 1.297 1.002s1.119.455 1.45.518c.43.07.867.073 1.297.013.262-.072.51-.188.733-.343l.114-.092-.253-.746Zm0 0c-.142-.405-.281-.796-.318-.861a3.733 3.733 0 0 0-.575-.533c-.285-.226-.822-.664-1.2-.975-.964-.808-1.378-1.037-1.915-1.076a1.138 1.138 0 0 0-.544.085c-.18.066-.351.15-.513.252-.219.151-.433.355-.433.432.06.161.13.32.207.474.263.6.48 1.219.653 1.85.126.444.327.599 1.297 1.002s1.119.455 1.45.518c.43.07.867.073 1.297.013.262-.072.51-.188.733-.343l.114-.092-.253-.746Zm0 0c-.142-.405-.281-.796-.318-.861a3.733 3.733 0 0 0-.575-.533c-.285-.226-.822-.664-1.2-.975-.964-.808-1.378-1.037-1.915-1.076a1.138 1.138 0 0 0-.544.085c-.18.066-.351.15-.513.252-.219.151-.433.355-.433.432.06.161.13.32.207.474.263.6.48 1.219.653 1.85.126.444.327.599 1.297 1.002s1.119.455 1.45.518c.43.07.867.073 1.297.013.262-.072.51-.188.733-.343l.114-.092-.253-.746Zm0 0c-.142-.405-.281-.796-.318-.861a3.733 3.733 0 0 0-.575-.533c-.285-.226-.822-.664-1.2-.975-.964-.808-1.378-1.037-1.915-1.076a1.138 1.138 0 0 0-.544.085c-.18.066-.351.15-.513.252-.219.151-.433.355-.433.432.06.161.13.32.207.474.263.6.48 1.219.653 1.85.126.444.327.599 1.297 1.002s1.119.455 1.45.518c.43.07.867.073 1.297.013.262-.072.51-.188.733-.343l.114-.092-.253-.746Z"/></svg>